<svg width="464" height="882" viewBox="0 0 464 882" fill="none" xmlns="http://www.w3.org/2000/svg">
<g clip-path="url(#clip0_322_5141)">
<path d="M645.845 104.889C640.397 103.311 634.543 107.028 632.768 113.176C628.442 128.16 622.305 141.721 614.626 154.089L284.523 58.6389C284.623 44.0752 286.661 29.3338 290.987 14.3507C292.763 8.19545 289.794 1.93355 284.346 0.362746C278.905 -1.21517 273.044 2.50217 271.269 8.65035C241.236 112.643 307.396 204.404 375.971 292.867C270.807 331.092 165.92 373.39 135.888 477.383C105.855 581.376 172.015 673.137 240.59 761.607C135.433 799.825 30.5534 842.13 0.513733 946.116C-1.26208 952.271 1.71418 958.533 7.15528 960.104C12.6035 961.682 18.4566 957.965 20.2324 951.816C24.5583 936.833 30.6955 923.272 38.3741 910.904L368.47 1006.36C368.37 1020.92 366.332 1035.67 362.006 1050.65C360.23 1056.8 363.206 1063.07 368.647 1064.64C374.088 1066.22 379.948 1062.5 381.724 1056.35C411.757 952.357 345.597 860.589 277.022 772.126C382.186 733.901 487.066 691.603 517.105 587.61C547.138 483.617 480.978 391.856 412.403 303.393C517.567 265.168 622.447 222.87 652.486 118.877C654.262 112.722 651.286 106.46 645.845 104.882V104.889ZM366.09 243.17C357.268 231.314 348.786 219.508 340.845 207.702L487.513 250.114C474.5 255.857 461.032 261.323 447.252 266.639L366.09 243.17ZM429.174 273.484C418.896 277.308 408.489 281.089 398.012 284.885C391.172 276.085 384.388 267.336 377.732 258.608L429.174 273.484ZM331.128 192.826C324.025 181.581 317.497 170.33 311.707 159.043L538.103 224.512C527.192 230.966 515.67 237 503.666 242.722L331.128 192.826ZM304.924 145.012C300.158 134.514 296.102 123.966 292.891 113.368L578.385 195.925C570.01 203.182 560.961 209.927 551.336 216.267L304.931 145.012H304.924ZM205.841 677.004C196.478 663.122 187.855 649.248 180.311 635.338L395.327 697.516C381.532 705.257 366.843 712.386 351.521 719.138L205.841 677.011V677.004ZM334.637 726.317C311.544 735.841 287.279 744.705 262.638 753.625C246.549 732.927 230.752 712.478 216.297 692.1L334.637 726.324V726.317ZM173.031 621.151C166.787 608.3 161.566 595.4 157.602 582.407L442.755 664.864C432.477 673.741 421.176 681.865 409.051 689.399L173.031 621.144V621.151ZM495.675 587.453C492.13 598.321 487.605 608.421 482.207 617.846L149.299 521.579C149.76 510.726 151.316 499.772 154.107 488.684L495.668 587.453H495.675ZM157.325 477.54C160.87 466.672 165.395 456.572 170.793 447.147L503.701 543.414C503.24 554.267 501.684 565.22 498.893 576.308L157.332 477.54H157.325ZM495.398 482.593L210.245 400.136C220.523 391.259 231.824 383.135 243.949 375.594L479.969 443.849C486.206 456.7 491.434 469.6 495.398 482.593ZM257.673 367.491C271.468 359.75 286.157 352.621 301.479 345.876L447.16 388.004C456.522 401.885 465.145 415.759 472.689 429.669L257.673 367.491ZM318.363 338.683C341.456 329.159 365.721 320.295 390.362 311.375C406.451 332.073 422.248 352.522 436.704 372.9L318.363 338.676V338.683ZM200.272 409.32L498.942 495.686C501.72 507.477 503.396 519.361 503.773 531.366L177.165 436.919C183.884 426.968 191.634 417.806 200.272 409.313V409.32ZM360.116 951.639L74.622 869.083C82.9968 861.826 92.0392 855.073 101.671 848.74L348.076 919.995C352.842 930.493 356.898 941.041 360.109 951.639H360.116ZM114.898 840.488C125.808 834.034 137.33 828 149.334 822.278L321.879 872.174C328.983 883.419 335.511 894.67 341.3 905.957L114.905 840.488H114.898ZM165.487 814.879C178.5 809.136 191.968 803.67 205.748 798.354L286.91 821.823C295.732 833.679 304.214 845.492 312.155 857.291L165.487 814.879ZM223.826 791.509C234.104 787.685 244.511 783.904 254.981 780.108C261.821 788.908 268.605 797.657 275.261 806.378L223.826 791.502V791.509ZM64.6704 878.273L363.632 964.724C365.912 974.476 367.44 984.292 368.1 994.178L45.1861 900.797C51.0179 892.78 57.5387 885.295 64.6704 878.266V878.273ZM452.736 655.68L154.065 569.314C151.287 557.523 149.611 545.639 149.235 533.634L475.842 628.081C469.13 638.032 461.373 647.194 452.736 655.687V655.68ZM588.33 186.727L289.368 100.276C287.088 90.5242 285.56 80.7084 284.9 70.8216L607.814 164.203C601.982 172.22 595.461 179.705 588.33 186.734V186.727Z" fill="url(#paint0_linear_322_5141)"/>
</g>
<defs>
<linearGradient id="paint0_linear_322_5141" x1="326.5" y1="0" x2="326.5" y2="1065" gradientUnits="userSpaceOnUse">
<stop stop-color="#FBFAF8" stop-opacity="0"/>
<stop offset="0.3" stop-color="#FBFAF8"/>
<stop offset="0.7" stop-color="#FBFAF8"/>
<stop offset="1" stop-color="#FBFAF8" stop-opacity="0"/>
</linearGradient>
<clipPath id="clip0_322_5141">
<rect width="464" height="882" fill="white"/>
</clipPath>
</defs>
</svg>
