<svg width="220" height="24" viewBox="0 0 220 24" fill="none" xmlns="http://www.w3.org/2000/svg">
<g clip-path="url(#clip0_225_1538)">
<path d="M68.8799 10.1153C69.9069 10.1153 70.737 9.2696 70.737 8.23054V0H67.0195V8.23054C67.0195 9.27288 67.8528 10.1153 68.8766 10.1153H68.8799Z" fill="#00973A"/>
<path d="M95.4027 24V15.7695C95.4027 14.7271 94.5694 13.8847 93.5456 13.8847C92.5185 13.8847 91.6885 14.7304 91.6885 15.7695V24H95.4059H95.4027Z" fill="#00973A"/>
<path d="M59.0586 3.77602H59.0004H59.0036C58.0606 3.77274 57.2983 2.9959 57.2983 2.03879V1.98306C57.2983 0.888282 56.4231 0 55.3444 0H32.6328V24H55.3444C56.4231 24 57.2983 23.1117 57.2983 22.0169V21.9612C57.2983 21.0041 58.0638 20.2273 59.0036 20.2273H58.9746L59.0586 20.224C60.1373 20.224 61.0125 19.3357 61.0125 18.2409V5.7558C61.0125 4.66102 60.1373 3.77274 59.0586 3.77274V3.77602ZM55.5866 20.2305H36.3438V3.77274H55.5866C56.5297 3.77274 57.2951 4.54958 57.2951 5.50669V18.4999C57.2951 19.457 56.5297 20.2305 55.5866 20.2305Z" fill="#00973A"/>
<path d="M26.4253 13.888H26.3704C25.4273 13.8847 24.6619 13.1079 24.6619 12.1508V11.6984C24.6619 10.8233 23.961 10.112 23.0987 10.112H5.41912C4.47604 10.112 3.71059 9.33515 3.71059 8.38131V5.50341C3.71059 4.5463 4.47604 3.76946 5.41912 3.76946H26.519V0H5.66458C4.58585 0 3.71382 0.888281 3.71382 1.98306V2.03879C3.71382 2.9959 2.94837 3.76946 2.00529 3.76946L1.94715 3.77274C0.868422 3.77274 -0.00683594 4.66102 -0.00683594 5.7558V8.1322C-0.00683594 9.22698 0.868422 10.1153 1.94715 10.1153H2.00206C2.94514 10.1153 3.71059 10.8921 3.71059 11.8492V12.3015C3.71059 13.1767 4.41144 13.888 5.27378 13.888H22.9533C23.8964 13.888 24.6619 14.6648 24.6619 15.622V18.4999C24.6619 19.457 23.8964 20.2305 22.9533 20.2305H1.85349V24.0033H22.7079C23.7866 24.0033 24.6619 23.115 24.6619 22.0202V21.9645C24.6619 21.0074 25.4273 20.2305 26.3704 20.2305H26.4253C27.504 20.2305 28.3793 19.3422 28.3793 18.2475V15.8711C28.3793 14.7763 27.504 13.888 26.4253 13.888Z" fill="#00973A"/>
<path d="M95.4027 0.00655746H91.6853V8.3846C91.6853 9.34171 90.9199 10.1153 89.98 10.1153H72.7429C71.6351 10.1153 70.734 11.0265 70.734 12.1541C70.734 13.1112 69.9686 13.888 69.0255 13.888V13.8913C67.9177 13.8913 67.0166 14.8025 67.0166 15.9301V24H70.734V15.6187C70.734 14.6616 71.4995 13.8847 72.4426 13.8847H89.6764C90.7842 13.8847 91.6853 12.9702 91.6853 11.8427C91.6853 10.8888 92.4443 10.1153 93.3842 10.112H93.3906C94.4984 10.112 95.3995 9.20077 95.3995 8.07321V0.00655746H95.4027Z" fill="#00973A"/>
<path d="M129.684 8.76157V6.22128H126.364V0.00986481H123.444V6.22128H118.218V0.00986481H115.299V6.22128H111.22V0.360589H108.3V6.22128H105.377V8.76157H108.3V20.0405C108.3 20.0405 108.3 20.0536 108.3 20.0601C108.3 20.0667 108.3 20.0732 108.3 20.0798V20.1552H108.306C108.355 20.9386 108.981 21.5613 109.756 21.5613C110.535 21.5613 110.545 21.8662 110.545 22.4988C110.545 22.5021 110.545 22.5086 110.545 22.5119C110.545 22.5152 110.545 22.5217 110.545 22.525V22.5578C110.545 22.6201 110.551 22.6758 110.564 22.725C110.654 23.41 111.158 23.941 111.785 23.9836V23.9967H128.734V21.0303H111.946C111.297 21.0303 111.21 20.6927 111.203 20.2306C111.203 20.2043 111.21 20.1748 111.21 20.1486H111.216V20.0798C111.216 20.0798 111.216 20.0634 111.216 20.0568C111.216 20.0503 111.216 20.0405 111.216 20.0339V8.76157H115.295V17.5657H115.302V17.9492H122.621C123.244 17.9492 123.748 17.3822 123.748 16.6807C123.748 16.0284 124.229 15.6187 124.846 15.5958C124.862 15.5958 124.881 15.6023 124.897 15.6023C125.705 15.6023 126.361 14.9304 126.361 14.1011C126.361 14.0945 126.361 14.088 126.361 14.0781V8.76157H129.681H129.684ZM123.441 14.0683C123.441 14.0683 123.441 14.088 123.441 14.1011C123.441 14.8943 123.308 15.3663 122.495 15.4089H118.215V8.76157H123.441V14.0683Z" fill="black"/>
<path d="M154.918 19.7618L152.973 18.4179L151.023 21.3221H143.991L142.454 18.5687L140.41 19.7454L141.288 21.3221H135.769V23.9246H158.871V21.3221H153.871L154.918 19.7618Z" fill="black"/>
<path d="M154.757 7.53565L158.303 3.79241H155.041L153.122 5.81809C152.36 4.88064 151.624 3.77274 150.945 2.44523H156.656V0.0557213H149.469C148.969 0.0557213 148.517 0.304834 148.255 0.721114C147.997 1.13412 147.971 1.65201 148.181 2.11418C148.203 2.16334 148.232 2.22562 148.265 2.30101C148.995 3.93663 149.805 5.32314 150.661 6.50315H143.985C144.841 5.32314 145.652 3.93663 146.382 2.30101C146.414 2.22562 146.443 2.16334 146.466 2.11418C146.679 1.65529 146.65 1.13412 146.392 0.724392C146.13 0.308112 145.678 0.0589991 145.177 0.0589991H138.056V2.44523H143.701C142.958 3.90058 142.144 5.10025 141.305 6.09014L139.441 3.79569H136.392L139.625 7.77493C138.291 8.90905 136.957 9.60722 135.775 10.0333V12.5408C137.836 11.9377 140.413 10.6594 142.797 7.99126V8.48621H151.569V7.65693C152.454 8.69927 153.374 9.54494 154.285 10.2267H142.251C141.602 10.2267 141.069 10.7184 140.985 11.3576C140.978 11.3805 140.972 11.4002 140.972 11.4264C140.972 12.1311 140.752 12.3016 140.371 12.3016C139.664 12.3016 139.089 12.885 139.089 13.6029V18.3327H152.331C153.038 18.3327 153.613 17.7493 153.613 17.0314C153.613 17.0183 153.61 17.0052 153.61 16.9954C153.61 16.4676 153.687 16.1333 154.366 16.1333C155.06 16.1136 155.622 15.54 155.622 14.832V11.1183C156.775 11.8033 157.889 12.2491 158.884 12.5408V10.0333C157.621 9.581 156.184 8.81399 154.763 7.54221L154.757 7.53565ZM141.65 13.9142C141.65 13.9142 141.653 13.9011 141.653 13.8913C141.653 13.2849 142.048 12.8293 143.016 12.8293L153.048 12.826V14.5305C153.045 15.4909 152.46 15.7236 151.617 15.7236C151.617 15.7236 151.614 15.7236 151.611 15.7236H141.647V13.911L141.65 13.9142Z" fill="black"/>
<path d="M174.719 19.7782C175.879 17.7919 176.521 15.2516 176.521 12.3638C176.521 12.3638 176.521 12.3606 176.521 12.3573C176.521 11.7706 176.092 11.2887 175.536 11.21C175.504 11.2035 175.462 11.1969 175.417 11.1969C175.404 11.1969 175.391 11.1937 175.375 11.1937C175.375 11.1937 175.375 11.1937 175.372 11.1937C174.897 11.1576 174.865 10.4594 174.865 10.0628C174.865 10.0202 174.861 9.98743 174.855 9.96449C174.806 9.37776 174.332 8.91559 173.744 8.90248L173.282 8.8992L176.586 3.34007H176.612V1.00628H170.834V3.33679H173.905L170.601 8.89593H170.588V11.2264H173.744C173.744 11.2264 173.763 11.2199 173.776 11.2199C173.789 11.2199 173.799 11.2264 173.815 11.2264C174.357 11.2264 174.225 11.7574 174.225 12.3245C174.225 12.3245 174.222 12.3474 174.222 12.3606C174.222 12.3638 174.222 12.3704 174.222 12.3737C174.222 14.3239 173.883 16.0677 173.269 17.5165C172.83 16.3595 172.61 14.9533 172.61 13.2914H170.314C170.314 15.9432 170.837 18.1327 171.845 19.8208C171.296 20.4403 170.663 20.9385 169.952 21.2893V21.3024V23.8033C171.244 23.3707 172.378 22.6299 173.324 21.64C174.958 23.1248 177.229 23.9017 180.087 23.9017H189.295V21.5711H180.087C177.736 21.5711 175.95 20.9811 174.716 19.7815L174.719 19.7782Z" fill="black"/>
<path d="M188.239 5.09697V3.66457C188.239 2.34035 187.177 1.25867 185.869 1.2554L183.301 1.24884V0.00983429H181.005V1.24556L177.242 1.23573L177.235 3.56624L181.005 3.57607V5.10025H176.606V7.43076H181.005V8.94182L177.213 8.93199L177.206 11.2625L181.001 11.2723V12.7178H177.21V15.0484H181.001V16.8511H175.973V19.1817H181.001V21.0533H183.298V19.1817H188.727V16.8511H183.298V15.0484H188.268V12.7178H183.298V11.2789L185.943 11.2854H186.502H187.561H188.236V7.43076H189.295V5.10025H188.236L188.239 5.09697ZM183.304 3.57935L185.865 3.58591C185.911 3.58591 185.946 3.62196 185.946 3.66785V5.10025H183.304V3.58263V3.57935ZM185.946 8.95166L183.304 8.9451V7.42748H185.946V8.95166Z" fill="black"/>
<path d="M170.33 0.553948L167.368 0.527725C167.368 0.563781 167.365 0.599837 167.362 0.635892C167.091 4.05135 166.535 7.61104 165.224 10.7643C165.13 10.9741 165.027 11.1904 164.917 11.4067V15.1008C165.492 14.7042 165.941 14.2191 166.315 13.7307C166.516 13.4586 166.706 13.1603 166.89 12.8489V23.7181H169.187V10.0595H168.221C169.377 7.03414 170.059 3.40891 170.333 0.557225L170.33 0.553948Z" fill="black"/>
<path d="M215.388 15.032H217.685V11.3412H218.796V9.01065H217.685V7.4832C217.685 6.21469 216.667 5.18219 215.417 5.18219H210.237V3.82518H219.283V1.49467H210.237V0H207.94V1.49467H200.376C199.753 1.49467 199.249 1.99618 199.23 2.61896C199.23 2.61896 199.23 2.62551 199.23 2.62879V2.65173C199.23 2.65173 199.23 2.65501 199.23 2.65829C199.23 3.1729 198.794 3.3499 198.141 3.3499C198.132 3.3499 198.125 3.35318 198.116 3.35318C198.106 3.35318 198.093 3.35318 198.083 3.35318C197.495 3.40235 197.037 3.90385 197.037 4.51352V14.6747C197.037 16.271 196.84 19.5979 195.306 21.1614V23.9344C197.528 22.997 198.884 20.4993 199.239 16.7299L201.562 18.4179L202.304 18.9587L204.801 17.9099L204.168 17.4477L201.226 15.3073L199.262 16.507C199.311 15.9235 199.336 15.3106 199.336 14.6714V11.3346H207.947V12.6916H201.387V15.0188H207.947V21.1516C207.947 21.168 207.924 21.2139 207.863 21.263C207.747 21.3614 207.572 21.4171 207.385 21.4171H204.129L207.123 20.0503L206.151 17.9394L197.789 21.7514L198.949 23.7771L204.078 21.4368V23.741H207.385C208.108 23.741 208.796 23.4985 209.323 23.056C209.907 22.5676 210.243 21.8727 210.243 21.145V15.0156H215.395L215.388 15.032ZM215.388 7.5127V9.01065H210.237V7.5127H215.388ZM199.33 9.01393V4.8413H199.34C199.34 4.32013 199.727 3.87107 200.418 3.82846H207.944V5.18547H200.861V7.51598H207.944V9.01393H199.333H199.33ZM210.237 11.3444H215.388V12.7047H210.237V11.3444Z" fill="black"/>
<path d="M215.356 20.0339C216.584 19.516 218.215 18.6605 219.939 17.2936L218.357 15.5859C215.873 17.5067 213.641 18.2278 212.963 18.4179C212.724 18.2245 212.508 18.0344 212.311 17.8541C211.655 17.251 211.161 16.684 210.806 16.2251L210.844 19.6536C212.485 21.1417 214.94 22.7806 218.48 23.8754L220.004 21.8924C218.144 21.3941 216.609 20.732 215.36 20.0371L215.356 20.0339Z" fill="black"/>
</g>
<defs>
<clipPath id="clip0_225_1538">
<rect width="220" height="24" fill="white"/>
</clipPath>
</defs>
</svg>
