<svg width="189" height="40" viewBox="0 0 189 40" fill="none" xmlns="http://www.w3.org/2000/svg">
<g clip-path="url(#clip0_248_2731)">
<path d="M159.283 0H178.666C184.371 0 189.001 4.62286 189.001 10.32V29.6743C189.001 35.3714 184.371 39.9943 178.666 39.9943H159.283C153.577 39.9943 148.947 35.3714 148.947 29.6743V10.32C148.947 4.62286 153.577 0 159.283 0Z" fill="#00973A"/>
<path d="M166.059 7.05737L160.742 12.3659C160.387 12.7202 160.639 13.3317 161.143 13.3317H165.887C166.202 13.3317 166.453 13.5831 166.453 13.8974V32.7659C166.453 33.0802 166.705 33.3317 167.02 33.3317H172.565C172.88 33.3317 173.132 33.0802 173.132 32.7659V7.2288C173.132 6.91451 172.88 6.66309 172.565 6.66309H167.008C166.654 6.66309 166.31 6.80594 166.059 7.05737Z" fill="white"/>
<path d="M29.7129 33.6802H49.073V30.3259H33.7303V22.703H47.03V19.383H33.7303V11.943H49.073V8.58301H29.7129V33.6802Z" fill="black"/>
<path d="M66.0012 8.58301L55.0078 33.6802H59.0996L61.9152 27.223H74.7742L77.5498 33.6802H81.9334L70.9743 8.58301H66.007H66.0012ZM63.3344 23.8687L68.1931 12.2344H68.5937L73.3779 23.8687H63.3287H63.3344Z" fill="black"/>
<path d="M109.635 12.126C109.223 11.1774 108.565 10.446 107.661 9.93744C106.763 9.42887 105.526 9.07458 103.953 8.8803C102.385 8.68601 100.364 8.58887 97.9094 8.58887H88.6328V33.686H97.9094C100.37 33.686 102.385 33.5889 103.953 33.3946C105.526 33.2003 106.763 32.846 107.661 32.3374C108.559 31.8289 109.218 31.0974 109.635 30.1489C110.047 29.2003 110.311 27.9889 110.419 26.5203C110.528 25.0517 110.585 23.2574 110.585 21.1374C110.585 19.0174 110.528 17.2289 110.419 15.7546C110.311 14.286 110.047 13.0746 109.635 12.126ZM106.511 25.6574C106.448 26.8232 106.259 27.726 105.944 28.3546C105.629 28.9889 105.143 29.446 104.485 29.7432C103.827 30.0346 102.911 30.206 101.744 30.2517C100.576 30.3032 99.0883 30.326 97.2856 30.326H92.6445V11.9432H97.2856C99.0368 11.9432 100.496 11.966 101.652 12.0174C102.808 12.0689 103.729 12.2289 104.41 12.5089C105.091 12.7889 105.589 13.2517 105.91 13.8974C106.225 14.5432 106.419 15.446 106.494 16.6117C106.568 17.7774 106.602 19.286 106.602 21.1374C106.602 22.9889 106.568 24.4917 106.511 25.6632V25.6574Z" fill="black"/>
<path d="M4.01738 20.8062H0V33.6862H4.01738V20.8062Z" fill="black"/>
<path d="M22.0613 33.6808L17.4201 23.4694C18.5933 23.0808 19.4803 22.5265 20.0869 21.8122C20.6992 21.0922 21.117 20.2522 21.3459 19.2922C21.5805 18.3322 21.7007 17.3151 21.7007 16.2465C21.7007 15.1779 21.592 14.0922 21.3688 13.1494C21.1513 12.2008 20.745 11.3894 20.1785 10.7036C19.6062 10.0236 18.7649 9.50364 17.6547 9.13793C16.5445 8.77221 15.1081 8.58936 13.3283 8.58936H0V11.9494H11.9377C13.3054 11.9494 14.3699 12.0236 15.1367 12.1665C15.8978 12.3094 16.4758 12.5551 16.8535 12.8979C17.2312 13.2351 17.4659 13.6808 17.5689 14.2294C17.6662 14.7779 17.712 15.4522 17.712 16.2522C17.712 17.0522 17.6547 17.7836 17.546 18.3665C17.4373 18.9494 17.1912 19.4236 16.7963 19.7894C16.4129 20.1551 15.812 20.4179 15.0108 20.5722C14.1982 20.7265 12.0235 20.8065 12.0235 20.8065L17.8207 33.6865H22.0613V33.6808Z" fill="black"/>
<path d="M126.696 33.6802V24.2687L116.172 8.58301H120.556L128.665 20.623H128.922L136.923 8.58301H141.306L130.679 24.2687V33.6802H126.702H126.696Z" fill="black"/>
</g>
<defs>
<clipPath id="clip0_248_2731">
<rect width="189" height="40" fill="white"/>
</clipPath>
</defs>
</svg>
